<?xml version="1.0" encoding="iso-8859-1"?>
<!-- Generator: Adobe Illustrator 19.0.0, SVG Export Plug-In . SVG Version: 6.00 Build 0)  -->
<svg version="1.1" id="Layer_1" xmlns="http://www.w3.org/2000/svg" xmlns:xlink="http://www.w3.org/1999/xlink" x="0px" y="0px"
	 viewBox="0 0 297 297" style="enable-background:new 0 0 297 297;" xml:space="preserve">
<g>
	<g>
		<g>
			<g>
				<g>
					<g>
						<circle style="fill:#B85627;" cx="148.5" cy="148.5" r="148.5"/>
					</g>
				</g>
			</g>
		</g>
		<g>
			<path style="fill:#963D1A;" d="M294.084,119.101l-50.67-50.67L41.944,205.59l90.549,90.549
				c5.259,0.564,10.598,0.861,16.007,0.861c82.014,0,148.5-66.486,148.5-148.5C297,138.434,295.993,128.604,294.084,119.101z"/>
		</g>
		<g>
			<g>
				<path style="fill:#32373B;" d="M60.333,198h176.333c5.983,0,10.833-4.85,10.833-10.833V76.834C247.5,70.85,242.65,66,236.667,66
					H60.333C54.35,66,49.5,70.85,49.5,76.834v110.333C49.5,193.15,54.35,198,60.333,198z"/>
			</g>
		</g>
		<g>
			<g>
				<path style="fill:#32373B;" d="M236.667,66h-88.5v132h88.5c5.983,0,10.833-4.85,10.833-10.833V76.833
					C247.5,70.85,242.65,66,236.667,66z"/>
			</g>
		</g>
		<g>
			<g>
				<rect x="66" y="82.5" style="fill:#D5C295;" width="165" height="99"/>
			</g>
		</g>
		<g>
			<g>
				<rect x="148.167" y="82.5" style="fill:#BCA982;" width="82.833" height="99"/>
			</g>
		</g>
		<g>
			<g>
				<path style="fill:#2B2B2B;" d="M63.417,214.5h170.167c16.799,0,30.417-13.618,30.417-30.417V181.5H33v2.583
					C33,200.882,46.618,214.5,63.417,214.5z"/>
			</g>
		</g>
		<g>
			<g>
				<path style="fill:#2B2B2B;" d="M148.167,181.5v33h85.417c16.799,0,30.417-13.618,30.417-30.417V181.5H148.167z"/>
			</g>
		</g>
	</g>
	<g>
		<path style="fill:#B85627;" d="M112.177,171.207h72.646c2.499,0,4.524-2.025,4.524-4.524v-63.159c0-2.499-2.025-4.524-4.524-4.524
			h-72.646c-2.499,0-4.524,2.025-4.524,4.524v63.159C107.653,169.181,109.679,171.207,112.177,171.207z"/>
	</g>
	<g>
		<path style="fill:#963D1A;" d="M184.823,99h-36.656v72.207h36.656c2.499,0,4.524-2.026,4.524-4.524v-63.159
			C189.347,101.025,187.322,99,184.823,99z"/>
	</g>
	<g>
		<rect x="140.753" y="99" style="fill:#FFCF6D;" width="15.494" height="30.987"/>
	</g>
	<g>
		<rect x="148.167" y="99" style="fill:#F9B65F;" width="8.08" height="30.987"/>
	</g>
</g>
<g>
</g>
<g>
</g>
<g>
</g>
<g>
</g>
<g>
</g>
<g>
</g>
<g>
</g>
<g>
</g>
<g>
</g>
<g>
</g>
<g>
</g>
<g>
</g>
<g>
</g>
<g>
</g>
<g>
</g>
</svg>
